HIERARCHY
ROOT Hips
{
 OFFSET 0.000000 0.000000 0.000000
 CHANNELS 6 Xposition Yposition Zposition Yrotation Xrotation Zrotation
 JOINT Chest
 {
  OFFSET 0.000000 9.585900 0.002600
  CHANNELS 3 Yrotation Xrotation Zrotation
  JOINT Chest2
  {
   OFFSET 0.000000 9.601200 -0.005300
   CHANNELS 3 Yrotation Xrotation Zrotation
   JOINT Chest3
   {
    OFFSET 0.000000 9.561800 0.000000
    CHANNELS 3 Yrotation Xrotation Zrotation
    JOINT Chest4
    {
     OFFSET 0.000000 9.552100 0.000000
     CHANNELS 3 Yrotation Xrotation Zrotation
     JOINT Neck
     {
      OFFSET 0.000000 14.453000 0.000000
      CHANNELS 3 Yrotation Xrotation Zrotation
      JOINT Head
      {
       OFFSET 0.000000 8.936500 -0.011300
       CHANNELS 3 Yrotation Xrotation Zrotation
       End Site
       {
        OFFSET 0.000000 17.073600 -0.006000
       }
      }
     }
     JOINT RightCollar
     {
      OFFSET -2.921100 9.558500 0.000000
      CHANNELS 3 Yrotation Xrotation Zrotation
      JOINT RightShoulder
      {
       OFFSET -13.519700 0.000000 0.000000
       CHANNELS 3 Yrotation Xrotation Zrotation
       JOINT RightElbow
       {
        OFFSET 0.000000 -29.696600 0.000000
        CHANNELS 3 Yrotation Xrotation Zrotation
        JOINT RightWrist
        {
         OFFSET 0.000000 -24.004700 0.000000
         CHANNELS 3 Yrotation Xrotation Zrotation
         End Site
         {
          OFFSET 0.000000 -17.728500 0.000000
         }
        }
       }
      }
     }
     JOINT LeftCollar
     {
      OFFSET 2.921100 9.558500 0.000000
      CHANNELS 3 Yrotation Xrotation Zrotation
      JOINT LeftShoulder
      {
       OFFSET 13.519700 0.000000 0.000000
       CHANNELS 3 Yrotation Xrotation Zrotation
       JOINT LeftElbow
       {
        OFFSET 0.000000 -29.696600 0.000000
        CHANNELS 3 Yrotation Xrotation Zrotation
        JOINT LeftWrist
        {
         OFFSET 0.000000 -24.004700 0.000000
         CHANNELS 3 Yrotation Xrotation Zrotation
         End Site
         {
          OFFSET 0.000000 -17.728500 0.000000
         }
        }
       }
      }
     }
    }
   }
  }
 }
 JOINT RightHip
 {
  OFFSET -7.771700 -0.012900 -0.001300
  CHANNELS 3 Yrotation Xrotation Zrotation
  JOINT RightKnee
  {
   OFFSET 0.000000 -40.869800 0.001200
   CHANNELS 3 Yrotation Xrotation Zrotation
   JOINT RightAnkle
   {
    OFFSET 0.000000 -39.717900 0.002100
    CHANNELS 3 Yrotation Xrotation Zrotation
    JOINT RightToe
    {
     OFFSET 0.000000 -4.965400 11.033500
     CHANNELS 3 Yrotation Xrotation Zrotation
     End Site
     {
      OFFSET 0.000000 -1.423100 5.872300
     }
    }
   }
  }
 }
 JOINT LeftHip
 {
  OFFSET 7.771700 -0.012900 -0.001300
  CHANNELS 3 Yrotation Xrotation Zrotation
  JOINT LeftKnee
  {
   OFFSET 0.000000 -40.869800 0.001200
   CHANNELS 3 Yrotation Xrotation Zrotation
   JOINT LeftAnkle
   {
    OFFSET 0.000000 -39.717900 0.002100
    CHANNELS 3 Yrotation Xrotation Zrotation
    JOINT LeftToe
    {
     OFFSET 0.000000 -4.965400 11.033500
     CHANNELS 3 Yrotation Xrotation Zrotation
     End Site
     {
      OFFSET 0.000000 -1.423100 5.872300
     }
    }
   }
  }
 }
}
MOTION
Frames: 8
Frame Time: 0.008333
-39.638344 57.285259 20.873890 163.352725 -9.653387 0.926395 2.843510 8.452608 1.403046 0.151369 0.471072 0.029718 0.263079 0.818115 0.052406 2.647951 8.069192 0.686909 6.263943 18.230327 -4.228398 12.849145 -1.201158 -9.757544 8.920885 6.171422 -2.197255 -6.997625 -27.675469 -20.025345 -178.299916 -73.253974 -163.490968 -0.218693 6.475405 -20.305413 -13.060890 -0.435119 -0.895044 -7.294348 -29.787379 10.142583 114.612907 -66.407436 -137.936500 5.874065 -4.628328 18.776012 -8.999193 -63.088505 0.761536 -35.423321 73.778212 -36.053509 -1.977472 -7.596092 0.436284 -0.953487 0.941155 -0.248621 -3.000204 -65.019333 14.077673 42.053042 63.572595 36.391558 -17.616975 -9.563425 3.267068 0.178176 -0.999946 0.053234
-39.672046 57.283017 20.866681 163.415542 -9.645797 0.862403 2.690008 8.490068 1.314941 0.142645 0.470836 0.024868 0.247928 0.817835 0.043953 2.500096 8.094941 0.595846 6.369057 18.070129 -4.278045 13.075600 -1.474983 -9.901205 8.915593 5.959234 -2.230568 -6.297346 -27.762423 -20.460700 -176.135183 -74.459430 -165.589953 -1.008909 6.522925 -22.096555 -13.297249 -0.683610 -0.755705 -7.990331 -30.022551 10.816644 116.051463 -66.627980 -139.239950 5.735605 -4.692710 18.039180 -9.006434 -63.087401 0.824350 -35.533516 73.734712 -36.269763 -1.990853 -7.554650 0.559776 -1.002857 0.927628 -0.265301 -3.166406 -65.039109 14.202553 42.056469 63.583163 36.392506 -17.682774 -9.582931 3.244269 0.294284 -0.995397 0.115139
-39.710775 57.282033 20.864661 163.492874 -9.596969 0.788120 2.509480 8.495147 1.231521 0.134340 0.470599 0.020282 0.233530 0.817590 0.035899 2.358344 8.117944 0.508225 6.426542 17.886193 -4.313102 13.213659 -1.801015 -10.007016 8.892145 5.720878 -2.267126 -5.681868 -27.803343 -20.995499 -173.536512 -75.396565 -168.097104 -2.003714 6.108389 -24.091052 -13.459131 -0.921750 -0.600751 -8.486792 -30.279980 11.391937 117.851053 -66.781017 -141.014952 5.531874 -4.814556 17.303301 -9.072294 -63.127593 0.943486 -35.658178 73.680293 -36.515286 -2.020312 -7.499789 0.681680 -1.035193 0.905274 -0.274003 -3.354737 -65.101640 14.347372 42.068733 63.578618 36.383817 -17.759232 -9.576989 3.234665 0.362677 -0.990363 0.162397
-39.748469 57.283365 20.863431 163.550908 -9.541449 0.691324 2.343048 8.494406 1.178544 0.126834 0.470278 0.016185 0.220440 0.817159 0.028769 2.229167 8.136512 0.429734 6.435261 17.687223 -4.338519 13.261653 -2.163010 -10.082282 8.857212 5.455425 -2.312376 -5.136871 -27.714342 -21.595011 -170.678445 -75.920274 -170.895612 -2.980916 5.371546 -25.985627 -13.559975 -1.138715 -0.445070 -8.829538 -30.552610 11.893138 120.017378 -66.877192 -143.214573 5.278619 -4.954399 16.604650 -9.186887 -63.168915 1.143869 -35.787755 73.614803 -36.777284 -2.057507 -7.428186 0.803452 -1.060048 0.869541 -0.279659 -3.449039 -65.177965 14.465163 41.970590 63.596213 36.303358 -17.867427 -9.577778 3.230954 0.464380 -0.973671 0.220134
-39.798959 57.287146 20.858182 163.637795 -9.483207 0.660375 2.132696 8.492118 1.063013 0.120346 0.469809 0.012748 0.209147 0.816454 0.022761 2.117111 8.149980 0.363517 6.396745 17.481271 -4.356368 13.221806 -2.545708 -10.129933 8.814340 5.165754 -2.367163 -4.656627 -27.460459 -22.212420 -168.041776 -75.964858 -173.533061 -3.761376 4.483571 -27.581264 -13.610578 -1.331831 -0.298782 -9.048613 -30.830425 12.335043 122.468838 -66.907931 -145.727861 5.014349 -5.077775 15.995776 -9.204040 -63.225205 1.205077 -35.914614 73.543710 -37.045516 -2.219025 -7.319906 0.888976 -0.959992 0.802462 -0.230610 -3.461051 -65.244791 14.447048 41.954719 63.580826 36.220573 -17.906506 -9.612376 3.327790 0.435036 -0.908188 0.211663
-39.850758 57.291692 20.859153 163.633025 -9.379908 0.639379 2.010643 8.444673 0.963752 0.114836 0.469305 0.010195 0.199620 0.815753 0.018253 2.022124 8.159848 0.313249 6.314952 17.272541 -4.368792 13.101191 -2.940477 -10.154265 8.762800 4.860761 -2.434755 -4.257256 -27.086859 -22.793985 -166.163604 -75.593968 -175.462550 -4.268394 3.553219 -28.792624 -13.613760 -1.508277 -0.172968 -9.156676 -31.106745 12.724088 124.978660 -66.845755 -148.332242 4.768044 -5.168001 15.527977 -9.215764 -63.323079 1.302823 -35.879177 73.498842 -37.166012 -2.125118 -7.323740 1.050170 -1.120233 0.848099 -0.275007 -3.451967 -65.349754 14.478285 41.967951 63.575380 36.188035 -17.995076 -9.546888 3.348186 0.456555 -0.974434 0.244783
-39.886637 57.299802 20.848956 163.629084 -9.361998 0.548848 1.895944 8.477528 0.952240 0.110181 0.469056 0.008551 0.191596 0.815393 0.015441 1.942015 8.168534 0.280048 6.195103 17.063614 -4.377186 12.909316 -3.341581 -10.158642 8.701155 4.547249 -2.517142 -3.980682 -26.679303 -23.291839 -165.345297 -74.931439 -176.348935 -4.512175 2.640473 -29.622660 -13.576422 -1.675450 -0.074530 -9.141257 -31.378329 13.062341 127.269540 -66.664473 -150.774231 4.559968 -5.218077 15.215730 -9.257175 -63.327898 1.528192 -36.078152 73.405229 -37.506774 -2.319103 -7.172096 1.131590 -0.987534 0.739658 -0.227237 -3.482472 -65.368140 14.610144 41.891939 63.593651 36.088666 -18.022586 -9.648408 3.341291 0.480600 -0.880313 0.314248
-39.922779 57.307650 20.842810 163.589645 -9.312301 0.464940 1.818417 8.472971 0.951252 0.106394 0.469067 0.007658 0.185012 0.815341 0.013892 1.876608 8.176564 0.260314 6.042112 16.856869 -4.379807 12.654075 -3.744128 -10.140700 8.619505 4.230376 -2.607498 -3.865614 -26.318889 -23.682380 -165.530955 -74.091775 -176.202807 -4.551759 1.770905 -30.121439 -13.514840 -1.837585 -0.001121 -8.989880 -31.641683 13.347637 129.127198 -66.364319 -152.863777 4.401170 -5.229848 15.047533 -9.274456 -63.362515 1.764594 -36.275733 73.307639 -37.843562 -2.422369 -7.080731 1.236124 -0.942198 0.688484 -0.218674 -3.487130 -65.414785 14.755634 41.819908 63.617829 35.984278 -18.099173 -9.683600 3.375318 0.549740 -0.868779 0.324651
